<svg data-v-423bf9ae="" xmlns="http://www.w3.org/2000/svg" viewBox="0 0 620 90" class="iconLeft"><!----><!----><!----><g data-v-423bf9ae="" id="2523abe8-33d5-4c73-8d14-dcea53317fd6" fill="white" transform="matrix(5.8365760270947415,0,0,5.8365760270947415,150.25834589396152,14.708172416800693)"><path d="M10.29 5.11L9.57 9.00Q9.11 9.31 8.63 9.56Q8.15 9.81 7.60 9.98Q7.05 10.14 6.43 10.23Q5.80 10.32 5.06 10.32L5.06 10.32Q3.95 10.32 3.13 10.01Q2.30 9.70 1.76 9.15Q1.22 8.61 0.95 7.85Q0.68 7.10 0.68 6.21L0.68 6.21Q0.68 4.92 1.09 3.86Q1.49 2.79 2.24 2.02Q2.99 1.26 4.05 0.84Q5.12 0.42 6.44 0.42L6.44 0.42Q7.33 0.42 8.02 0.64Q8.70 0.85 9.19 1.22Q9.69 1.59 10.00 2.07Q10.31 2.56 10.46 3.09L10.46 3.09L8.53 3.62Q8.45 3.31 8.28 3.01Q8.11 2.72 7.85 2.50Q7.58 2.27 7.21 2.14Q6.83 2.00 6.33 2.00L6.33 2.00Q5.46 2.00 4.79 2.32Q4.12 2.63 3.66 3.19Q3.20 3.74 2.96 4.50Q2.73 5.26 2.73 6.15L2.73 6.15Q2.73 6.67 2.87 7.14Q3.01 7.62 3.31 7.97Q3.61 8.33 4.08 8.54Q4.56 8.75 5.22 8.75L5.22 8.75Q5.65 8.75 6.03 8.70Q6.41 8.64 6.75 8.55Q7.08 8.46 7.36 8.34Q7.64 8.22 7.85 8.09L7.85 8.09L8.16 6.54L5.82 6.54L6.09 5.11L10.29 5.11ZM18.27 9.05L18.17 10.11Q17.88 10.22 17.59 10.24Q17.29 10.26 16.99 10.26L16.99 10.26Q16.30 10.26 15.93 9.97Q15.57 9.69 15.57 9.21L15.57 9.21Q15.57 9.11 15.57 9.00Q15.58 8.89 15.60 8.78L15.60 8.78L15.56 8.78Q15.33 9.14 15.09 9.43Q14.85 9.71 14.56 9.92Q14.27 10.12 13.90 10.22Q13.54 10.33 13.06 10.33L13.06 10.33Q12.52 10.33 12.13 10.16Q11.74 9.99 11.48 9.70Q11.22 9.42 11.09 9.05Q10.96 8.68 10.96 8.29L10.96 8.29Q10.96 7.74 11.11 7.33Q11.27 6.93 11.53 6.64Q11.80 6.36 12.16 6.18Q12.52 6.00 12.93 5.89Q13.34 5.79 13.78 5.75Q14.23 5.71 14.66 5.70L14.66 5.70L15.96 5.68L16.02 5.43Q16.06 5.23 16.08 5.08Q16.11 4.92 16.11 4.79L16.11 4.79Q16.11 4.33 15.87 4.12Q15.64 3.91 15.24 3.91L15.24 3.91Q15.04 3.91 14.83 3.94Q14.62 3.96 14.43 4.06Q14.24 4.16 14.09 4.36Q13.93 4.55 13.85 4.88L13.85 4.88L12.05 4.67Q12.16 4.21 12.41 3.84Q12.65 3.47 13.05 3.21Q13.45 2.95 14.00 2.80Q14.55 2.66 15.27 2.66L15.27 2.66Q16.69 2.66 17.35 3.16Q18.01 3.66 18.01 4.68L18.01 4.68Q18.01 4.89 17.95 5.18Q17.90 5.48 17.84 5.75L17.84 5.75L17.36 8.16Q17.34 8.28 17.32 8.41Q17.30 8.54 17.30 8.65L17.30 8.65Q17.30 8.82 17.37 8.91Q17.44 9.00 17.53 9.04Q17.62 9.08 17.71 9.09Q17.79 9.10 17.84 9.10L17.84 9.10Q17.94 9.10 18.02 9.09Q18.11 9.08 18.27 9.05L18.27 9.05ZM15.60 7.38L15.75 6.75L14.64 6.75Q13.84 6.77 13.38 7.08Q12.92 7.40 12.92 7.97L12.92 7.97Q12.92 8.24 13.00 8.43Q13.08 8.63 13.22 8.75Q13.36 8.87 13.54 8.93Q13.72 8.99 13.92 8.99L13.92 8.99Q14.12 8.99 14.36 8.91Q14.60 8.83 14.84 8.65Q15.07 8.46 15.28 8.15Q15.48 7.84 15.60 7.38L15.60 7.38ZM27.71 4.09L27.71 4.09Q27.41 4.09 27.13 4.23Q26.85 4.37 26.63 4.62Q26.41 4.88 26.25 5.24Q26.09 5.60 26.00 6.04L26.00 6.04L25.18 10.19L23.28 10.19L24.12 5.85Q24.14 5.74 24.16 5.62Q24.18 5.49 24.20 5.36Q24.21 5.23 24.22 5.12Q24.23 5.00 24.23 4.92L24.23 4.92Q24.23 4.09 23.37 4.09L23.37 4.09Q23.06 4.09 22.78 4.23Q22.51 4.38 22.29 4.63Q22.06 4.89 21.90 5.25Q21.74 5.62 21.65 6.06L21.65 6.06L20.84 10.19L18.92 10.19L20.05 4.38Q20.10 4.14 20.14 3.89Q20.19 3.63 20.22 3.40Q20.26 3.17 20.29 3.01Q20.31 2.84 20.32 2.80L20.32 2.80L22.18 2.80Q22.18 2.83 22.16 2.98Q22.13 3.13 22.10 3.33Q22.07 3.52 22.04 3.72Q22.01 3.92 21.98 4.06L21.98 4.06L22.00 4.06Q22.22 3.74 22.44 3.48Q22.66 3.22 22.92 3.04Q23.19 2.86 23.51 2.76Q23.84 2.67 24.25 2.67L24.25 2.67Q25.09 2.67 25.59 3.07Q26.08 3.48 26.17 4.25L26.17 4.25Q26.39 3.91 26.63 3.62Q26.87 3.34 27.16 3.12Q27.45 2.91 27.80 2.79Q28.15 2.67 28.59 2.67L28.59 2.67Q29.54 2.67 30.04 3.17Q30.54 3.66 30.54 4.61L30.54 4.61Q30.54 4.85 30.50 5.16Q30.45 5.47 30.40 5.73L30.40 5.73L29.52 10.19L27.62 10.19L28.45 5.91Q28.47 5.80 28.49 5.68Q28.51 5.55 28.53 5.42Q28.55 5.30 28.56 5.17Q28.57 5.05 28.57 4.96L28.57 4.96L28.57 4.92Q28.55 4.09 27.71 4.09ZM38.36 6.94L33.57 6.94Q33.54 7.09 33.53 7.24Q33.52 7.39 33.52 7.55L33.52 7.55Q33.52 8.27 33.84 8.66Q34.16 9.04 34.78 9.04L34.78 9.04Q35.07 9.04 35.29 8.96Q35.52 8.87 35.70 8.71Q35.88 8.56 36.01 8.35Q36.14 8.13 36.24 7.89L36.24 7.89L37.91 8.39Q37.71 8.83 37.45 9.19Q37.19 9.55 36.81 9.80Q36.44 10.06 35.91 10.19Q35.38 10.33 34.65 10.33L34.65 10.33Q33.90 10.33 33.32 10.12Q32.74 9.91 32.35 9.52Q31.96 9.13 31.76 8.57Q31.55 8.02 31.55 7.33L31.55 7.33Q31.55 6.21 31.85 5.35Q32.15 4.48 32.68 3.88Q33.21 3.28 33.94 2.97Q34.67 2.66 35.54 2.66L35.54 2.66Q36.31 2.66 36.87 2.86Q37.43 3.07 37.80 3.44Q38.17 3.81 38.34 4.33Q38.52 4.85 38.52 5.47L38.52 5.47Q38.52 5.78 38.48 6.18Q38.43 6.58 38.36 6.94L38.36 6.94ZM33.80 5.66L36.74 5.66Q36.76 5.55 36.76 5.46Q36.76 5.37 36.76 5.28L36.76 5.28Q36.76 4.55 36.43 4.21Q36.09 3.88 35.54 3.88L35.54 3.88Q35.31 3.88 35.05 3.95Q34.79 4.03 34.55 4.23Q34.30 4.43 34.11 4.77Q33.91 5.12 33.80 5.66L33.80 5.66ZM48.04 10.19L45.81 10.19L44.24 6.54L41.88 6.54L41.17 10.19L39.16 10.19L41.03 0.56L45.48 0.56Q46.40 0.56 47.06 0.79Q47.71 1.01 48.13 1.39Q48.54 1.77 48.73 2.27Q48.92 2.77 48.92 3.32L48.92 3.32Q48.92 3.96 48.70 4.46Q48.47 4.96 48.09 5.33Q47.71 5.69 47.21 5.91Q46.71 6.13 46.17 6.21L46.17 6.21L48.04 10.19ZM42.18 4.97L44.87 4.97Q45.33 4.97 45.70 4.88Q46.07 4.79 46.33 4.60Q46.59 4.41 46.74 4.12Q46.88 3.83 46.88 3.43L46.88 3.43Q46.88 3.08 46.75 2.83Q46.62 2.58 46.40 2.42Q46.17 2.27 45.87 2.20Q45.57 2.13 45.23 2.13L45.23 2.13L42.74 2.13L42.18 4.97ZM56.25 6.94L51.47 6.94Q51.44 7.09 51.43 7.24Q51.42 7.39 51.42 7.55L51.42 7.55Q51.42 8.27 51.74 8.66Q52.06 9.04 52.68 9.04L52.68 9.04Q52.96 9.04 53.19 8.96Q53.42 8.87 53.59 8.71Q53.77 8.56 53.90 8.35Q54.04 8.13 54.13 7.89L54.13 7.89L55.81 8.39Q55.60 8.83 55.34 9.19Q55.08 9.55 54.71 9.80Q54.33 10.06 53.81 10.19Q53.28 10.33 52.55 10.33L52.55 10.33Q51.80 10.33 51.22 10.12Q50.64 9.91 50.25 9.52Q49.85 9.13 49.65 8.57Q49.45 8.02 49.45 7.33L49.45 7.33Q49.45 6.21 49.75 5.35Q50.05 4.48 50.58 3.88Q51.11 3.28 51.84 2.97Q52.57 2.66 53.44 2.66L53.44 2.66Q54.20 2.66 54.76 2.86Q55.32 3.07 55.69 3.44Q56.06 3.81 56.24 4.33Q56.42 4.85 56.42 5.47L56.42 5.47Q56.42 5.78 56.37 6.18Q56.33 6.58 56.25 6.94L56.25 6.94ZM51.69 5.66L54.64 5.66Q54.65 5.55 54.66 5.46Q54.66 5.37 54.66 5.28L54.66 5.28Q54.66 4.55 54.32 4.21Q53.98 3.88 53.44 3.88L53.44 3.88Q53.20 3.88 52.94 3.95Q52.68 4.03 52.44 4.23Q52.20 4.43 52.00 4.77Q51.81 5.12 51.69 5.66L51.69 5.66ZM64.18 9.05L64.09 10.11Q63.80 10.22 63.51 10.24Q63.21 10.26 62.90 10.26L62.90 10.26Q62.22 10.26 61.85 9.97Q61.48 9.69 61.48 9.21L61.48 9.21Q61.48 9.11 61.49 9.00Q61.50 8.89 61.52 8.78L61.52 8.78L61.48 8.78Q61.24 9.14 61.00 9.43Q60.76 9.71 60.47 9.92Q60.18 10.12 59.82 10.22Q59.46 10.33 58.97 10.33L58.97 10.33Q58.44 10.33 58.05 10.16Q57.65 9.99 57.39 9.70Q57.13 9.42 57.00 9.05Q56.88 8.68 56.88 8.29L56.88 8.29Q56.88 7.74 57.03 7.33Q57.18 6.93 57.45 6.64Q57.72 6.36 58.07 6.18Q58.43 6.00 58.84 5.89Q59.25 5.79 59.70 5.75Q60.14 5.71 60.57 5.70L60.57 5.70L61.88 5.68L61.93 5.43Q61.98 5.23 62.00 5.08Q62.02 4.92 62.02 4.79L62.02 4.79Q62.02 4.33 61.79 4.12Q61.56 3.91 61.15 3.91L61.15 3.91Q60.96 3.91 60.74 3.94Q60.53 3.96 60.34 4.06Q60.16 4.16 60.00 4.36Q59.85 4.55 59.77 4.88L59.77 4.88L57.97 4.67Q58.08 4.21 58.32 3.84Q58.57 3.47 58.97 3.21Q59.36 2.95 59.91 2.80Q60.46 2.66 61.19 2.66L61.19 2.66Q62.60 2.66 63.26 3.16Q63.92 3.66 63.92 4.68L63.92 4.68Q63.92 4.89 63.87 5.18Q63.81 5.48 63.76 5.75L63.76 5.75L63.27 8.16Q63.25 8.28 63.24 8.41Q63.22 8.54 63.22 8.65L63.22 8.65Q63.22 8.82 63.29 8.91Q63.36 9.00 63.44 9.04Q63.53 9.08 63.62 9.09Q63.71 9.10 63.76 9.10L63.76 9.10Q63.85 9.10 63.94 9.09Q64.03 9.08 64.18 9.05L64.18 9.05ZM61.52 7.38L61.67 6.75L60.56 6.75Q59.76 6.77 59.30 7.08Q58.84 7.40 58.84 7.97L58.84 7.97Q58.84 8.24 58.92 8.43Q59.00 8.63 59.14 8.75Q59.27 8.87 59.46 8.93Q59.64 8.99 59.83 8.99L59.83 8.99Q60.03 8.99 60.28 8.91Q60.52 8.83 60.75 8.65Q60.99 8.46 61.20 8.15Q61.40 7.84 61.52 7.38L61.52 7.38ZM66.75 10.19L64.83 10.19L66.80 0.05L68.72 0.05L66.75 10.19ZM77.52 4.09L77.52 4.09Q77.21 4.09 76.94 4.23Q76.66 4.37 76.44 4.62Q76.21 4.88 76.05 5.24Q75.89 5.60 75.80 6.04L75.80 6.04L74.99 10.19L73.08 10.19L73.92 5.85Q73.94 5.74 73.96 5.62Q73.99 5.49 74.00 5.36Q74.02 5.23 74.03 5.12Q74.04 5.00 74.04 4.92L74.04 4.92Q74.04 4.09 73.18 4.09L73.18 4.09Q72.86 4.09 72.59 4.23Q72.32 4.38 72.09 4.63Q71.87 4.89 71.71 5.25Q71.54 5.62 71.46 6.06L71.46 6.06L70.65 10.19L68.72 10.19L69.86 4.38Q69.90 4.14 69.95 3.89Q69.99 3.63 70.03 3.40Q70.07 3.17 70.09 3.01Q70.12 2.84 70.12 2.80L70.12 2.80L71.98 2.80Q71.98 2.83 71.96 2.98Q71.94 3.13 71.91 3.33Q71.88 3.52 71.85 3.72Q71.82 3.92 71.79 4.06L71.79 4.06L71.81 4.06Q72.02 3.74 72.25 3.48Q72.47 3.22 72.73 3.04Q72.99 2.86 73.32 2.76Q73.64 2.67 74.05 2.67L74.05 2.67Q74.90 2.67 75.39 3.07Q75.89 3.48 75.98 4.25L75.98 4.25Q76.20 3.91 76.44 3.62Q76.68 3.34 76.97 3.12Q77.25 2.91 77.60 2.79Q77.96 2.67 78.40 2.67L78.40 2.67Q79.34 2.67 79.85 3.17Q80.35 3.66 80.35 4.61L80.35 4.61Q80.35 4.85 80.31 5.16Q80.26 5.47 80.21 5.73L80.21 5.73L79.33 10.19L77.42 10.19L78.26 5.91Q78.28 5.80 78.30 5.68Q78.32 5.55 78.34 5.42Q78.36 5.30 78.37 5.17Q78.38 5.05 78.38 4.96L78.38 4.96L78.38 4.92Q78.36 4.09 77.52 4.09Z"></path></g><!----><g data-v-423bf9ae="" id="d75274b4-eff6-41bc-915f-6f27518f5775" transform="matrix(1.4913997676262094,0,0,1.4913997676262094,-6.5701551036305545,-30.104654224001436)" stroke="none" fill="white"><path d="M94.455 44.581a2.628 2.628 0 01-.124-.66 30.414 30.414 0 00-1.033-6.007c-.031-.101-.085-.276-.129-.458-1.941-7.555-4.847-11.636-4.876-11.676a2.677 2.677 0 01-.505-1.55c-.024-.31-.435-3.667-7.451-3.667h-4.541c-3.135 0-5.42.683-6.606 1.972a2.648 2.648 0 01-2.593.776c-3.737-.938-8.337-1.826-16.643-1.967-8.218.141-12.822 1.029-16.56 1.967a2.64 2.64 0 01-2.593-.778c-1.184-1.288-3.469-1.97-6.602-1.97h-4.548c-7.021 0-7.429 3.352-7.454 3.734a2.777 2.777 0 01-1.072 2.026c-.808 1.412-2.778 5.218-4.307 11.15-.828 3.308-1.064 5.381-1.177 6.377-1.538 9.966-.515 27.87 5.293 34.647 1.394 1.626 2.925 2.412 4.68 2.412 3.635 0 4.001-.918 5.603-6.455.391-1.348.825-2.852 1.387-4.497 3.035-8.931 7.791-9.537 18.22-10.863l1.379-.178a89.139 89.139 0 017.747-.449c2.847.049 5.139.181 7.759.441l1.455.186c10.427 1.326 15.188 1.933 18.223 10.863.562 1.646.996 3.154 1.39 4.507 1.602 5.527 1.967 6.445 5.603 6.445 1.755 0 3.286-.786 4.678-2.412 5.695-6.641 6.789-24.015 5.397-33.916zM25.713 55.788c-6.97 0-12.625-5.654-12.625-12.625 0-6.97 5.654-12.625 12.625-12.625 6.973 0 12.622 5.655 12.622 12.625 0 6.971-5.649 12.625-12.622 12.625zm48.569-25.251a4.545 4.545 0 014.544 4.544 4.545 4.545 0 01-4.544 4.543 4.547 4.547 0 01-4.548-4.543 4.548 4.548 0 014.548-4.544zm-8.081 17.169a4.54 4.54 0 01-4.549-4.543 4.54 4.54 0 014.549-4.541 4.54 4.54 0 014.539 4.541 4.54 4.54 0 01-4.539 4.543zm8.081 8.082a4.552 4.552 0 01-4.548-4.547 4.55 4.55 0 014.548-4.544 4.549 4.549 0 014.544 4.544 4.55 4.55 0 01-4.544 4.547zm8.073-8.082a4.542 4.542 0 010-9.084 4.542 4.542 0 110 9.084z"></path><path d="M30.981 40.338h-2.446v-2.445a2.822 2.822 0 00-5.644 0v2.445h-2.449a2.827 2.827 0 00-2.825 2.825 2.821 2.821 0 002.825 2.822h2.449v2.446a2.823 2.823 0 105.644 0v-2.446h2.446a2.823 2.823 0 100-5.647z"></path></g><!----></svg>